<?xml version="1.0" standalone="no"?>
<svg xmlns:xlink="http://www.w3.org/1999/xlink" id="wave" style="transform:rotate(0deg); transition: 0.3s" viewBox="0 0 1440 490" version="1.1" xmlns="http://www.w3.org/2000/svg"><defs><linearGradient id="sw-gradient-0" x1="0" x2="0" y1="1" y2="0"><stop stop-color="rgba(243, 106, 62, 1)" offset="0%"/><stop stop-color="rgba(255, 179, 11, 1)" offset="100%"/></linearGradient></defs><path style="transform:translate(0, 0px); opacity:1" fill="url(#sw-gradient-0)" d="M0,0L80,49C160,98,320,196,480,253.2C640,310,800,327,960,310.3C1120,294,1280,245,1440,245C1600,245,1760,294,1920,334.8C2080,376,2240,408,2400,375.7C2560,343,2720,245,2880,212.3C3040,180,3200,212,3360,253.2C3520,294,3680,343,3840,351.2C4000,359,4160,327,4320,318.5C4480,310,4640,327,4800,285.8C4960,245,5120,147,5280,155.2C5440,163,5600,278,5760,302.2C5920,327,6080,261,6240,236.8C6400,212,6560,229,6720,236.8C6880,245,7040,245,7200,245C7360,245,7520,245,7680,245C7840,245,8000,245,8160,261.3C8320,278,8480,310,8640,334.8C8800,359,8960,376,9120,383.8C9280,392,9440,392,9600,367.5C9760,343,9920,294,10080,261.3C10240,229,10400,212,10560,196C10720,180,10880,163,11040,130.7C11200,98,11360,49,11440,24.5L11520,0L11520,490L11440,490C11360,490,11200,490,11040,490C10880,490,10720,490,10560,490C10400,490,10240,490,10080,490C9920,490,9760,490,9600,490C9440,490,9280,490,9120,490C8960,490,8800,490,8640,490C8480,490,8320,490,8160,490C8000,490,7840,490,7680,490C7520,490,7360,490,7200,490C7040,490,6880,490,6720,490C6560,490,6400,490,6240,490C6080,490,5920,490,5760,490C5600,490,5440,490,5280,490C5120,490,4960,490,4800,490C4640,490,4480,490,4320,490C4160,490,4000,490,3840,490C3680,490,3520,490,3360,490C3200,490,3040,490,2880,490C2720,490,2560,490,2400,490C2240,490,2080,490,1920,490C1760,490,1600,490,1440,490C1280,490,1120,490,960,490C800,490,640,490,480,490C320,490,160,490,80,490L0,490Z"/></svg>