<?xml version="1.0" standalone="no"?>
<svg xmlns:xlink="http://www.w3.org/1999/xlink" id="wave" style="transform:rotate(0deg); transition: 0.3s" viewBox="0 0 1440 320" version="1.1" xmlns="http://www.w3.org/2000/svg"><defs><linearGradient id="sw-gradient-0" x1="0" x2="0" y1="1" y2="0"><stop stop-color="rgba(218.941, 117.274, 84.622, 1)" offset="0%"/><stop stop-color="rgba(250.816, 177.744, 16.216, 0.46)" offset="100%"/></linearGradient></defs><path style="transform:translate(0, 0px); opacity:1" fill="url(#sw-gradient-0)" d="M0,256L60,256C120,256,240,256,360,261.3C480,267,600,277,720,240C840,203,960,117,1080,69.3C1200,21,1320,11,1440,10.7C1560,11,1680,21,1800,21.3C1920,21,2040,11,2160,48C2280,85,2400,171,2520,176C2640,181,2760,107,2880,90.7C3000,75,3120,117,3240,160C3360,203,3480,245,3600,240C3720,235,3840,181,3960,154.7C4080,128,4200,128,4320,154.7C4440,181,4560,235,4680,256C4800,277,4920,267,5040,261.3C5160,256,5280,256,5400,245.3C5520,235,5640,213,5760,181.3C5880,149,6000,107,6120,112C6240,117,6360,171,6480,197.3C6600,224,6720,224,6840,197.3C6960,171,7080,117,7200,112C7320,107,7440,149,7560,170.7C7680,192,7800,192,7920,208C8040,224,8160,256,8280,234.7C8400,213,8520,139,8580,101.3L8640,64L8640,320L8580,320C8520,320,8400,320,8280,320C8160,320,8040,320,7920,320C7800,320,7680,320,7560,320C7440,320,7320,320,7200,320C7080,320,6960,320,6840,320C6720,320,6600,320,6480,320C6360,320,6240,320,6120,320C6000,320,5880,320,5760,320C5640,320,5520,320,5400,320C5280,320,5160,320,5040,320C4920,320,4800,320,4680,320C4560,320,4440,320,4320,320C4200,320,4080,320,3960,320C3840,320,3720,320,3600,320C3480,320,3360,320,3240,320C3120,320,3000,320,2880,320C2760,320,2640,320,2520,320C2400,320,2280,320,2160,320C2040,320,1920,320,1800,320C1680,320,1560,320,1440,320C1320,320,1200,320,1080,320C960,320,840,320,720,320C600,320,480,320,360,320C240,320,120,320,60,320L0,320Z"/></svg>