<?xml version="1.0" standalone="no"?>
<svg xmlns:xlink="http://www.w3.org/1999/xlink" id="wave" style="transform:rotate(0deg); transition: 0.3s" viewBox="0 0 1440 110" version="1.1" xmlns="http://www.w3.org/2000/svg"><defs><linearGradient id="sw-gradient-0" x1="0" x2="0" y1="1" y2="0"><stop stop-color="rgba(243, 106, 62, 1)" offset="0%"/><stop stop-color="rgba(255, 179, 11, 1)" offset="100%"/></linearGradient></defs><path style="transform:translate(0, 0px); opacity:1" fill="url(#sw-gradient-0)" d="M0,0L24,11C48,22,96,44,144,56.8C192,70,240,73,288,69.7C336,66,384,55,432,55C480,55,528,66,576,75.2C624,84,672,92,720,84.3C768,77,816,55,864,47.7C912,40,960,48,1008,56.8C1056,66,1104,77,1152,78.8C1200,81,1248,73,1296,71.5C1344,70,1392,73,1440,64.2C1488,55,1536,33,1584,34.8C1632,37,1680,62,1728,67.8C1776,73,1824,59,1872,53.2C1920,48,1968,51,2016,53.2C2064,55,2112,55,2160,55C2208,55,2256,55,2304,55C2352,55,2400,55,2448,58.7C2496,62,2544,70,2592,75.2C2640,81,2688,84,2736,86.2C2784,88,2832,88,2880,82.5C2928,77,2976,66,3024,58.7C3072,51,3120,48,3168,44C3216,40,3264,37,3312,29.3C3360,22,3408,11,3432,5.5L3456,0L3456,110L3432,110C3408,110,3360,110,3312,110C3264,110,3216,110,3168,110C3120,110,3072,110,3024,110C2976,110,2928,110,2880,110C2832,110,2784,110,2736,110C2688,110,2640,110,2592,110C2544,110,2496,110,2448,110C2400,110,2352,110,2304,110C2256,110,2208,110,2160,110C2112,110,2064,110,2016,110C1968,110,1920,110,1872,110C1824,110,1776,110,1728,110C1680,110,1632,110,1584,110C1536,110,1488,110,1440,110C1392,110,1344,110,1296,110C1248,110,1200,110,1152,110C1104,110,1056,110,1008,110C960,110,912,110,864,110C816,110,768,110,720,110C672,110,624,110,576,110C528,110,480,110,432,110C384,110,336,110,288,110C240,110,192,110,144,110C96,110,48,110,24,110L0,110Z"/></svg>